<mxfile host="app.diagrams.net" modified="2024-04-19T14:33:20.233Z" agent="Mozilla/5.0 (X11; Linux x86_64) AppleWebKit/537.36 (KHTML, like Gecko) Chrome/124.0.0.0 Safari/537.36" version="24.2.5" etag="RS9Gz574oWMT8M_ed2N3" type="github">
  <diagram name="Page-1" id="11JQ3SRlSxyhGBuFflUO">
    <mxGraphModel>
      <root>
        <mxCell id="0" />
        <mxCell id="1" parent="0" />
      </root>
    </mxGraphModel>
  </diagram>
</mxfile>
